<svg data-v-423bf9ae="" xmlns="http://www.w3.org/2000/svg" viewBox="0 0 269.69519103175236 181" class="iconAboveSlogan"><!----><!----><!----><g data-v-423bf9ae="" id="00212e87-bb98-4f8e-b9af-3b28f71db560" fill="black" transform="matrix(4.354136212645278,0,0,4.354136212645278,0.740206802086675,102.52104536193099)"><path d="M-0.17 1.22C0.57 1.25 0.77 1.33 1.08 1.92C1.86 3.36 2.69 4.91 3.37 6.30C3.53 6.59 3.58 6.83 3.58 7.11L3.58 9.20C3.58 9.97 3.54 10.01 2.10 10.09L2.10 10.50L6.45 10.50L6.45 10.09C5.01 10.01 4.97 9.97 4.97 9.20L4.97 7.06C4.97 6.72 5.01 6.51 5.15 6.23C5.87 4.80 6.92 2.84 7.35 2.14C7.83 1.37 7.91 1.26 8.85 1.22L8.85 0.81L5.78 0.81L5.78 1.22L6.54 1.29C6.79 1.32 6.82 1.47 6.71 1.74C6.36 2.58 5.40 4.49 4.66 5.95L4.63 5.95C3.82 4.48 3.09 3.07 2.48 1.72C2.37 1.47 2.42 1.33 2.63 1.30L3.46 1.22L3.46 0.81L-0.17 0.81ZM8.92 7.07C8.92 9.34 10.02 10.67 12.28 10.67C14.53 10.67 15.64 9.34 15.64 7.07C15.64 4.80 14.53 3.47 12.28 3.47C10.02 3.47 8.92 4.80 8.92 7.07ZM10.37 7.07C10.37 5.14 10.99 3.96 12.28 3.96C13.57 3.96 14.18 5.14 14.18 7.07C14.18 9.00 13.57 10.18 12.28 10.18C10.99 10.18 10.37 9.00 10.37 7.07ZM16.67 4.17L17.21 4.24C17.57 4.30 17.65 4.37 17.65 4.87L17.65 8.57C17.65 10.18 18.61 10.67 19.64 10.67C20.83 10.67 21.80 9.86 22.20 9.66L22.34 10.50L24.58 10.50L24.58 10.09C23.62 10.02 23.53 10.00 23.53 9.28L23.53 3.56L23.44 3.47L21.24 3.82L21.24 4.17L21.77 4.24C22.13 4.30 22.22 4.37 22.22 4.87L22.22 8.02C22.22 8.41 22.18 8.72 22.11 8.86C21.78 9.51 21.11 9.91 20.38 9.91C19.57 9.91 18.97 9.41 18.97 8.32L18.97 3.56L18.87 3.47L16.67 3.82ZM25.24 10.50L28.94 10.50L28.94 10.09C27.69 10.02 27.61 10.00 27.61 9.28L27.61 6.01C27.61 4.93 28.08 4.56 28.41 4.56C28.63 4.56 28.87 4.65 29.27 4.87C29.37 4.93 29.48 4.94 29.55 4.94C29.89 4.94 30.20 4.59 30.20 4.16C30.20 3.85 30.00 3.47 29.46 3.47C28.95 3.47 28.53 3.78 27.61 4.59L27.44 3.47L25.31 3.82L25.31 4.17L25.84 4.24C26.21 4.30 26.29 4.37 26.29 4.87L26.29 9.28C26.29 10.00 26.22 10.02 25.24 10.09ZM33.88 10.50L38.22 10.50C40.35 10.50 41.72 9.73 41.72 7.78C41.72 6.13 40.54 5.40 39.19 5.22L39.19 5.19C40.50 4.93 41.27 4.12 41.27 3.04C41.27 2.27 40.96 1.69 40.40 1.32C39.86 0.95 39.05 0.81 37.93 0.81L33.88 0.81L33.88 1.22C35.11 1.30 35.14 1.33 35.14 2.11L35.14 9.20C35.14 9.98 35.11 10.01 33.88 10.09ZM36.53 8.93L36.53 5.53L37.53 5.53C39.27 5.53 40.22 6.40 40.22 7.88C40.22 9.56 39.07 10.01 37.87 10.01C36.75 10.01 36.53 9.80 36.53 8.93ZM36.53 5.04L36.53 2.00C36.53 1.40 36.57 1.30 37.66 1.30C38.68 1.30 39.80 1.68 39.80 3.12C39.80 4.49 38.92 5.04 37.46 5.04ZM42.71 10.50L46.13 10.50L46.13 10.09C45.14 10.02 45.08 10.00 45.08 9.28L45.08 0.20L44.98 0.11L42.78 0.46L42.78 0.81L43.32 0.87C43.68 0.91 43.76 0.98 43.76 1.51L43.76 9.28C43.76 10.00 43.72 10.02 42.71 10.09ZM47.03 7.07C47.03 9.34 48.13 10.67 50.39 10.67C52.64 10.67 53.75 9.34 53.75 7.07C53.75 4.80 52.64 3.47 50.39 3.47C48.13 3.47 47.03 4.80 47.03 7.07ZM48.48 7.07C48.48 5.14 49.10 3.96 50.39 3.96C51.67 3.96 52.29 5.14 52.29 7.07C52.29 9.00 51.67 10.18 50.39 10.18C49.10 10.18 48.48 9.00 48.48 7.07ZM55.01 11.84C55.01 13.26 56.41 13.89 58.03 13.89C58.87 13.89 59.75 13.72 60.42 13.31C61.07 12.92 61.53 12.26 61.53 11.40C61.53 9.88 60.33 9.35 58.83 9.35L57.71 9.35C56.70 9.35 56.55 9.02 56.55 8.75C56.55 8.34 57.08 8.12 57.26 8.06C57.53 8.09 57.82 8.11 57.97 8.11C59.30 8.11 60.80 7.52 60.80 5.82C60.80 5.24 60.62 4.75 60.38 4.51L61.49 4.34L61.77 3.46L61.66 3.33L59.86 3.91C59.47 3.64 58.70 3.47 58.06 3.47C55.92 3.47 55.16 4.79 55.16 5.82C55.16 7.14 56.03 7.74 56.67 7.91L56.67 7.94C55.92 8.23 55.38 8.64 55.38 9.18C55.38 9.67 55.94 10.21 56.62 10.28L56.62 10.30C56.01 10.50 55.01 10.84 55.01 11.84ZM56.34 11.77C56.34 11.30 56.48 10.95 56.77 10.72C57.08 10.49 57.54 10.40 58.21 10.40C59.44 10.40 60.35 10.70 60.35 11.75C60.35 12.87 59.35 13.40 58.35 13.40C57.16 13.40 56.34 12.78 56.34 11.77ZM56.59 5.82C56.59 4.44 57.32 3.96 58.06 3.96C58.74 3.96 59.46 4.47 59.46 5.82C59.46 7 58.84 7.62 58.03 7.62C57.25 7.62 56.59 7 56.59 5.82Z"></path></g><!----><g data-v-423bf9ae="" id="c73fcb40-ba1e-42f4-9801-9463e15b67c9" transform="matrix(2.8125,0,0,2.8125,90,0)" stroke="none" fill="black"><path d="M16 32c8.837 0 16-7.163 16-16S24.837 0 16 0 0 7.163 0 16s7.163 16 16 16zM14.817 6.421h2v8.886h8.887v2H14.817V6.421zm-5.959.437h2v14.283h14.283v2H8.858V6.858z"></path></g><!----><g data-v-423bf9ae="" id="f9630366-8b19-4b98-8ed0-42f11c965a35" fill="black" transform="matrix(0.5381991871341032,0,0,0.5381991871341032,33.910483445067584,203.89311337245385)"><path d="M0.10 3.51C0.10 3.75 0.21 3.77 0.38 3.77L0.88 3.77C0.97 3.77 3.11 10.99 3.14 11.07C3.49 12.14 3.60 12.99 3.91 12.99C4.13 12.99 4.23 12.67 4.51 12.26C4.66 12.05 4.76 12.01 4.90 11.66L6.89 6.45C6.96 6.29 6.99 6.20 7.01 6.20C7.04 6.20 7.07 6.29 7.11 6.45C7.71 8.51 8.39 11.03 8.40 11.07C8.75 12.14 8.86 12.99 9.17 12.99C9.39 12.99 9.49 12.67 9.77 12.26C9.93 12.05 10.02 12.01 10.16 11.66L13.26 4.06C13.36 3.81 13.36 3.77 13.72 3.77C13.96 3.77 14.01 3.71 14.01 3.53C14.01 3.32 13.97 3.26 13.78 3.26C13.64 3.26 13.33 3.30 12.82 3.30C12.08 3.30 11.58 3.26 11.38 3.26C11.20 3.26 11.10 3.28 11.10 3.51C11.10 3.75 11.21 3.77 11.38 3.77L12.29 3.77C12.36 3.77 12.38 3.81 12.38 3.95C12.38 4.63 10.78 8.72 10.07 10.63C9.93 10.99 9.86 11.17 9.81 11.17C9.76 11.17 9.70 10.99 9.58 10.60C9.49 10.30 8.57 7.18 8.04 5.22C7.99 5.05 7.78 4.17 7.78 3.85C7.78 3.81 7.78 3.79 7.80 3.77L8.68 3.77C8.86 3.77 8.96 3.75 8.96 3.56C8.96 3.32 8.92 3.26 8.72 3.26C8.40 3.26 7.46 3.30 7.04 3.30C6.62 3.30 5.71 3.26 5.49 3.26C5.31 3.26 5.21 3.28 5.21 3.51C5.21 3.75 5.32 3.77 5.49 3.77L6.29 3.77C6.33 3.77 6.51 4.27 6.66 4.83C6.72 5.05 6.76 5.15 6.76 5.25C6.76 5.31 6.76 5.38 6.72 5.49L4.72 10.60C4.62 10.82 4.59 10.95 4.55 10.95C4.51 10.95 4.48 10.84 4.40 10.60C4.31 10.32 3.30 7.27 2.70 5.22C2.66 5.08 2.34 3.96 2.32 3.85C2.34 3.77 2.38 3.77 2.42 3.77L3.12 3.77C3.35 3.77 3.42 3.75 3.42 3.56C3.42 3.32 3.37 3.26 3.18 3.26C2.86 3.26 2.14 3.30 1.72 3.30C1.30 3.30 0.60 3.26 0.38 3.26C0.20 3.26 0.10 3.28 0.10 3.51ZM21.63 3.51C21.63 3.72 21.70 3.79 21.90 3.79L22.71 3.77C22.81 3.77 22.85 6.61 22.85 8.55L22.85 10.42C22.85 11.30 22.83 12.18 22.79 12.18L22.19 12.18C21.97 12.18 21.90 12.19 21.90 12.39C21.90 12.63 21.94 12.68 22.13 12.68C22.26 12.68 23.09 12.64 23.51 12.64C23.93 12.64 24.70 12.68 25.02 12.68C25.19 12.68 25.21 12.61 25.21 12.40C25.21 12.24 25.19 12.18 25.02 12.18L24.21 12.18C24.14 12.18 24.05 9.18 24.05 8.37C24.05 8.30 24.05 8.26 24.16 8.26C24.56 8.26 25.16 8.27 25.45 8.27C27.69 8.32 27.83 10.00 27.83 11.68L27.83 12.49C27.83 12.61 27.89 12.64 27.99 12.64C27.99 12.64 29.43 12.68 29.90 12.68C30.07 12.68 30.13 12.64 30.13 12.53C30.13 12.24 30.07 12.18 29.92 12.18L29.27 12.18C29.18 12.18 29.15 12.14 29.12 11.31C29.04 8.99 27.66 8.34 26.75 8.05C26.61 8.01 26.64 8.01 26.75 7.95C27.34 7.69 28.66 6.94 28.66 5.63C28.66 3.63 26.96 3.21 25.56 3.21C25.24 3.21 23.95 3.29 23.53 3.29C23.11 3.29 22.13 3.26 21.91 3.26C21.73 3.26 21.63 3.28 21.63 3.51ZM24.05 7.80L24.05 4.40C24.05 4.05 24.08 3.68 24.12 3.68C24.33 3.65 24.61 3.65 24.84 3.65C26.14 3.65 27.38 4.47 27.38 5.82C27.38 6.99 26.84 7.57 26.18 7.88C26.14 7.90 26.10 7.90 26.03 7.90C25.55 7.88 24.84 7.88 24.23 7.87C24.07 7.87 24.05 7.85 24.05 7.80ZM37.46 12.39C37.46 12.63 37.51 12.68 37.70 12.68C38.02 12.68 38.78 12.64 39.49 12.64C40.15 12.64 40.95 12.68 41.17 12.68C41.34 12.68 41.37 12.61 41.37 12.40C41.37 12.24 41.34 12.18 41.17 12.18L40.21 12.18C40.11 12.18 40.08 9.55 40.08 7.76L40.08 5.87C40.08 5.14 40.11 3.70 40.21 3.70L41.12 3.70C41.34 3.70 41.37 3.68 41.37 3.49C41.37 3.25 41.34 3.19 41.17 3.19C40.85 3.19 40.18 3.23 39.52 3.23C38.71 3.23 38.00 3.19 37.77 3.19C37.59 3.19 37.52 3.21 37.52 3.44C37.52 3.68 37.60 3.70 37.77 3.70L38.70 3.70C38.74 3.70 38.81 4.79 38.81 5.71L38.81 7.08C38.81 8.92 38.79 12.18 38.68 12.18L37.76 12.18C37.53 12.18 37.46 12.19 37.46 12.39ZM49 5.01C49 5.17 49.18 5.17 49.31 5.17C49.46 5.17 49.50 5.15 49.52 4.97L49.63 3.89C49.64 3.81 50.19 3.75 50.95 3.75L52.93 3.75C52.99 3.75 53.02 4.35 53.02 4.97C53.02 6.43 52.96 12.18 52.84 12.18L51.97 12.18C51.74 12.18 51.70 12.19 51.70 12.39C51.70 12.63 51.72 12.68 51.91 12.68C52.23 12.68 53.21 12.64 53.63 12.64C54.05 12.64 54.99 12.68 55.31 12.68C55.48 12.68 55.51 12.61 55.51 12.40C55.51 12.24 55.48 12.18 55.31 12.18L54.32 12.18C54.29 12.18 54.29 11.76 54.29 11.31C54.29 9.56 54.38 5.96 54.38 5.92C54.39 5.18 54.39 3.75 54.49 3.75L56.10 3.75C56.81 3.75 57.64 3.78 57.64 3.85C57.64 3.99 57.60 4.90 57.60 4.97C57.60 5.12 57.67 5.17 57.85 5.17C58.04 5.17 58.11 5.17 58.11 5.03C58.11 3.93 58.17 3.40 58.17 3.14C58.17 2.94 58.09 2.94 57.89 2.94C57.74 2.94 57.68 2.98 57.67 3.16C57.67 3.23 57.02 3.28 56.18 3.28L51.18 3.28C50.53 3.28 49.71 3.28 49.71 3.21L49.71 3.07C49.71 2.94 49.59 2.94 49.49 2.94C49.27 2.94 49.24 3.00 49.22 3.19C49.17 3.89 49 4.97 49 5.01ZM65.93 12.39C65.93 12.63 65.95 12.68 66.15 12.68C66.47 12.68 67.44 12.64 67.86 12.64C68.28 12.64 72.79 12.68 73.11 12.68C73.23 12.68 73.39 12.66 73.39 12.49C73.39 12.07 73.43 11.23 73.43 10.53C73.43 10.39 73.28 10.39 73.15 10.39C73.04 10.39 72.91 10.39 72.91 10.51C72.90 11.06 72.90 11.41 72.87 11.76C72.84 12.01 72.84 12.04 72.74 12.04C72.59 12.04 69.96 12.08 68.46 12.08C68.39 12.08 68.35 10.11 68.31 8.26C68.31 8.06 68.35 8.09 68.49 8.09L70.77 8.09C71.47 8.09 71.50 8.20 71.50 8.30L71.50 9.00C71.50 9.14 71.68 9.14 71.79 9.14C71.89 9.14 72.02 9.13 72.02 9.02C72.02 8.83 71.99 8.33 71.99 7.83C71.99 7.32 72.02 6.83 72.02 6.71C72.02 6.59 71.88 6.58 71.78 6.58C71.67 6.58 71.50 6.59 71.50 6.72L71.50 7.45C71.50 7.62 71.05 7.63 70.77 7.63L68.43 7.63C68.32 7.63 68.31 7.63 68.31 7.45C68.29 6.75 68.28 6.06 68.28 5.46C68.28 5.12 68.28 3.71 68.36 3.71C69.59 3.71 72.10 3.75 72.10 3.81C72.10 3.99 72.06 4.83 72.06 4.89C72.06 5.04 72.13 5.10 72.31 5.10C72.51 5.10 72.58 5.08 72.58 4.94C72.58 3.85 72.63 3.36 72.63 3.09C72.63 2.91 72.55 2.90 72.35 2.90C72.16 2.90 72.16 2.95 72.13 3.11C72.11 3.25 72.18 3.25 71.27 3.25C70.66 3.25 68.52 3.29 67.75 3.29C67.26 3.29 66.32 3.25 66.22 3.25C66.09 3.25 66.04 3.30 66.04 3.49C66.04 3.72 66.11 3.74 66.28 3.74L66.93 3.74C66.99 3.74 67.06 4.79 67.06 5.71C67.06 5.80 67.12 8.27 67.12 9.83L67.12 11.17C67.12 11.84 67.09 12.18 67.06 12.18L66.21 12.18C65.98 12.18 65.93 12.21 65.93 12.39ZM90.78 3.51C90.78 3.75 90.89 3.77 91.06 3.77L91.56 3.77C91.64 3.77 93.79 10.99 93.81 11.07C94.16 12.14 94.28 12.99 94.58 12.99C94.81 12.99 94.91 12.67 95.19 12.26C95.34 12.05 95.44 12.01 95.58 11.66L97.57 6.45C97.64 6.29 97.66 6.20 97.69 6.20C97.72 6.20 97.75 6.29 97.79 6.45C98.39 8.51 99.06 11.03 99.08 11.07C99.43 12.14 99.54 12.99 99.85 12.99C100.07 12.99 100.17 12.67 100.45 12.26C100.60 12.05 100.70 12.01 100.84 11.66L103.94 4.06C104.03 3.81 104.03 3.77 104.40 3.77C104.64 3.77 104.69 3.71 104.69 3.53C104.69 3.32 104.65 3.26 104.45 3.26C104.31 3.26 104.01 3.30 103.50 3.30C102.76 3.30 102.26 3.26 102.06 3.26C101.88 3.26 101.78 3.28 101.78 3.51C101.78 3.75 101.89 3.77 102.06 3.77L102.97 3.77C103.04 3.77 103.05 3.81 103.05 3.95C103.05 4.63 101.46 8.72 100.74 10.63C100.60 10.99 100.53 11.17 100.49 11.17C100.44 11.17 100.38 10.99 100.25 10.60C100.17 10.30 99.25 7.18 98.71 5.22C98.67 5.05 98.46 4.17 98.46 3.85C98.46 3.81 98.46 3.79 98.48 3.77L99.36 3.77C99.54 3.77 99.64 3.75 99.64 3.56C99.64 3.32 99.60 3.26 99.40 3.26C99.08 3.26 98.14 3.30 97.72 3.30C97.30 3.30 96.39 3.26 96.17 3.26C95.98 3.26 95.89 3.28 95.89 3.51C95.89 3.75 96.00 3.77 96.17 3.77L96.96 3.77C97.01 3.77 97.19 4.27 97.34 4.83C97.40 5.05 97.44 5.15 97.44 5.25C97.44 5.31 97.44 5.38 97.40 5.49L95.40 10.60C95.30 10.82 95.27 10.95 95.23 10.95C95.19 10.95 95.16 10.84 95.07 10.60C94.99 10.32 93.98 7.27 93.38 5.22C93.34 5.08 93.02 3.96 93.00 3.85C93.02 3.77 93.06 3.77 93.10 3.77L93.80 3.77C94.02 3.77 94.09 3.75 94.09 3.56C94.09 3.32 94.05 3.26 93.86 3.26C93.53 3.26 92.82 3.30 92.40 3.30C91.98 3.30 91.28 3.26 91.06 3.26C90.87 3.26 90.78 3.28 90.78 3.51ZM112.31 12.39C112.31 12.63 112.31 12.68 112.50 12.68C112.83 12.68 113.76 12.64 114.18 12.64C114.60 12.64 115.43 12.68 115.75 12.68C115.92 12.68 115.92 12.61 115.92 12.40C115.92 12.24 115.92 12.18 115.75 12.18L114.83 12.18C114.74 12.18 114.70 9.93 114.70 8.20C114.70 8.01 114.70 8.01 114.83 8.01L120.06 8.01C120.13 8.01 120.15 8.01 120.15 8.18L120.15 9.91C120.15 11.05 120.13 12.18 120.08 12.18L119.31 12.18C119.08 12.18 119.04 12.19 119.04 12.39C119.04 12.63 119.06 12.68 119.25 12.68C119.57 12.68 120.41 12.64 120.83 12.64C121.25 12.64 121.84 12.68 122.16 12.68C122.33 12.68 122.35 12.61 122.35 12.40C122.35 12.24 122.33 12.18 122.16 12.18L121.42 12.18C121.38 12.18 121.37 9.27 121.37 7.04C121.37 5.40 121.37 3.70 121.41 3.70L122.02 3.70C122.25 3.70 122.29 3.68 122.29 3.49C122.29 3.25 122.28 3.19 122.08 3.19C121.94 3.19 121.31 3.23 120.72 3.23C120.05 3.23 119.45 3.19 119.22 3.19C119.03 3.19 119.00 3.22 119.00 3.44C119.00 3.67 119.07 3.70 119.24 3.70L120.04 3.70C120.09 3.70 120.15 4.79 120.15 5.71L120.15 7.42C120.15 7.59 120.15 7.59 119.98 7.59L114.87 7.59C114.70 7.59 114.70 7.59 114.70 7.38C114.70 6.96 114.69 6.23 114.69 5.53C114.69 4.66 114.70 3.70 114.76 3.70L115.53 3.70C115.75 3.70 115.79 3.68 115.79 3.49C115.79 3.25 115.78 3.19 115.58 3.19C115.26 3.19 114.67 3.23 114.07 3.23C113.48 3.23 112.99 3.19 112.77 3.19C112.59 3.19 112.49 3.21 112.49 3.44C112.49 3.68 112.60 3.70 112.77 3.70L113.39 3.70C113.44 3.70 113.46 5.59 113.46 7.18L113.46 8.61C113.46 10.08 113.44 12.18 113.37 12.18L112.56 12.18C112.34 12.18 112.31 12.19 112.31 12.39ZM130.24 12.39C130.24 12.63 130.24 12.68 130.44 12.68C130.61 12.68 130.93 12.64 131.50 12.64C132.12 12.64 132.66 12.68 132.82 12.68C132.99 12.68 132.99 12.61 132.99 12.40C132.99 12.24 132.99 12.18 132.82 12.18L131.74 12.18C131.74 12.18 131.73 12.18 131.73 12.17C131.74 11.87 132.51 9.90 132.86 9.02C132.93 8.83 132.94 8.79 133.15 8.79L135.98 8.79C136.12 8.79 136.12 8.81 136.19 9.03C136.46 9.77 137.17 11.89 137.17 12.17C137.17 12.18 137.16 12.18 137.16 12.18L136.39 12.18C136.16 12.18 136.15 12.19 136.15 12.39C136.15 12.63 136.16 12.68 136.33 12.68C136.65 12.68 137.52 12.64 137.94 12.64C138.36 12.64 139.03 12.68 139.24 12.68C139.38 12.68 139.40 12.61 139.40 12.40C139.40 12.24 139.38 12.18 139.24 12.18L138.75 12.18C138.66 12.18 137.63 9.34 137.07 7.78L135.39 3.07C135.38 3.00 135.31 2.94 135.23 2.94C135.10 2.94 135.00 3.16 134.92 3.35C134.76 3.71 134.53 3.84 134.41 4.13L132.93 7.57C132.75 8.01 131.04 12.18 130.91 12.18L130.49 12.18C130.27 12.18 130.24 12.19 130.24 12.39ZM133.14 8.33C133.14 8.30 133.17 8.23 133.21 8.13L134.58 4.77C134.62 4.66 134.65 4.61 134.68 4.61C134.69 4.61 134.71 4.63 134.75 4.77L135.91 8.18C135.94 8.25 135.95 8.29 135.95 8.32C135.95 8.36 135.93 8.37 135.83 8.37L133.32 8.37C133.14 8.37 133.14 8.34 133.14 8.33ZM145.49 5.01C145.49 5.17 145.67 5.17 145.80 5.17C145.95 5.17 145.99 5.15 146.01 4.97L146.12 3.89C146.13 3.81 146.68 3.75 147.43 3.75L149.42 3.75C149.48 3.75 149.51 4.35 149.51 4.97C149.51 6.43 149.45 12.18 149.32 12.18L148.46 12.18C148.23 12.18 148.19 12.19 148.19 12.39C148.19 12.63 148.20 12.68 148.40 12.68C148.72 12.68 149.70 12.64 150.12 12.64C150.54 12.64 151.48 12.68 151.80 12.68C151.97 12.68 152.00 12.61 152.00 12.40C152.00 12.24 151.97 12.18 151.80 12.18L150.81 12.18C150.78 12.18 150.78 11.76 150.78 11.31C150.78 9.56 150.86 5.96 150.86 5.92C150.88 5.18 150.88 3.75 150.98 3.75L152.59 3.75C153.30 3.75 154.13 3.78 154.13 3.85C154.13 3.99 154.08 4.90 154.08 4.97C154.08 5.12 154.15 5.17 154.34 5.17C154.53 5.17 154.60 5.17 154.60 5.03C154.60 3.93 154.66 3.40 154.66 3.14C154.66 2.94 154.57 2.94 154.38 2.94C154.22 2.94 154.17 2.98 154.15 3.16C154.15 3.23 153.51 3.28 152.67 3.28L147.67 3.28C147.01 3.28 146.20 3.28 146.20 3.21L146.20 3.07C146.20 2.94 146.08 2.94 145.98 2.94C145.75 2.94 145.73 3.00 145.71 3.19C145.66 3.89 145.49 4.97 145.49 5.01ZM162.27 5.45C162.27 5.56 162.30 5.68 162.48 5.68C162.71 5.68 162.69 5.60 162.76 5.39C162.83 5.15 163.21 3.98 163.32 3.53C163.34 3.46 163.35 3.37 163.35 3.32C163.35 3.09 163.20 2.93 162.90 2.93C162.54 2.93 162.44 3.14 162.41 3.37C162.37 3.68 162.27 5.43 162.27 5.45ZM171.46 5.77C171.46 9.07 176.44 8.20 176.44 10.65C176.44 11.59 175.60 12.31 174.62 12.31C173.80 12.31 172.20 11.83 172.17 11.47L172.09 10.15C172.07 9.97 172.00 9.91 171.82 9.91L171.75 9.91C171.54 9.91 171.54 10.00 171.54 10.12C171.54 10.32 171.65 11.66 171.68 12.17C171.70 12.38 172.96 12.85 174.50 12.85C176.06 12.85 177.67 11.87 177.67 10.11C177.67 6.79 172.70 7.87 172.70 5.32C172.70 4.31 173.49 3.56 174.52 3.56C175.55 3.56 176.64 4.58 176.64 4.89C176.64 5.01 176.60 5.73 176.60 5.78C176.60 5.92 176.64 5.99 176.90 5.99C177.14 5.99 177.16 5.94 177.16 5.75C177.16 5.04 177.24 3.68 177.24 3.53C177.24 3.30 177.20 3.29 176.93 3.29C176.71 3.29 176.69 3.32 176.68 3.53C176.68 3.61 176.67 3.78 176.62 3.78C176.57 3.78 176.48 3.74 176.41 3.68C175.62 3.14 175.00 3.08 174.50 3.08C172.97 3.08 171.46 4.17 171.46 5.77ZM195.51 8.15C195.51 11.17 197.85 12.80 200.10 12.80C202.89 12.80 204.86 10.89 204.86 8.06C204.86 5.33 203.11 3.11 200.31 3.11C197.71 3.11 195.51 5.10 195.51 8.15ZM196.91 7.77C196.91 5.64 198.20 3.58 200.17 3.58C202.41 3.58 203.49 5.81 203.49 7.94C203.49 10.08 202.38 12.32 200.12 12.32C198.13 12.32 196.91 10.28 196.91 7.77ZM212.97 12.39C212.97 12.63 212.98 12.68 213.18 12.68C213.36 12.68 213.74 12.64 214.35 12.64C214.98 12.64 215.54 12.68 215.87 12.68C216.03 12.68 216.03 12.61 216.03 12.40C216.03 12.24 216.03 12.18 215.87 12.18L214.66 12.18C214.62 12.18 214.61 11.54 214.61 10.79C214.61 9.46 214.62 7.48 214.62 5.99C214.62 5.25 214.62 4.84 214.63 4.28C214.63 4.02 214.70 4.14 214.83 4.28L221.72 12.66C221.80 12.75 221.89 12.89 222.00 12.89C222.11 12.89 222.18 12.77 222.18 12.54C222.18 12.39 222.35 6.65 222.36 4.48C222.36 4.06 222.39 3.70 222.42 3.70L223.05 3.70C223.27 3.70 223.33 3.68 223.33 3.49C223.33 3.25 223.33 3.19 223.13 3.19C222.94 3.19 222.50 3.23 221.94 3.23C221.33 3.23 220.53 3.19 220.43 3.19C220.26 3.19 220.26 3.26 220.26 3.47C220.26 3.64 220.26 3.70 220.43 3.70L221.73 3.70C221.75 3.70 221.75 4.33 221.75 4.44C221.75 5.85 221.77 8.33 221.77 9.70L221.77 10.29C221.77 10.57 221.76 10.65 221.54 10.37L215.85 3.39C215.74 3.25 215.71 3.19 215.54 3.19C215.46 3.19 215.08 3.23 214.77 3.23C214.48 3.23 213.40 3.19 213.21 3.19C213.04 3.19 213.01 3.26 213.01 3.47C213.01 3.64 213.04 3.70 213.21 3.70L214.12 3.70C214.12 4.17 214.07 8.53 214.00 10.79C213.98 11.69 213.99 12.18 213.88 12.18L213.23 12.18C213.01 12.18 212.97 12.19 212.97 12.39ZM240.74 3.44C240.74 3.68 240.83 3.70 241.00 3.70L241.40 3.70C241.53 3.70 243.78 7.74 244.19 8.50C244.24 8.60 244.29 8.65 244.29 8.81C244.29 10.50 244.27 12.18 244.15 12.18L243.43 12.18C243.21 12.18 243.17 12.19 243.17 12.39C243.17 12.63 243.18 12.68 243.38 12.68C243.57 12.68 244.38 12.64 244.97 12.64C245.80 12.64 246.33 12.68 246.65 12.68C246.82 12.68 246.85 12.61 246.85 12.40C246.85 12.24 246.82 12.18 246.65 12.18L245.69 12.18C245.59 12.18 245.56 9.72 245.56 8.22C245.56 8.18 245.56 8.15 245.60 8.09C246.15 7.22 248.09 3.70 248.16 3.70L248.64 3.70C248.81 3.70 248.91 3.68 248.91 3.44C248.91 3.22 248.82 3.19 248.64 3.19C248.42 3.19 248.18 3.23 247.58 3.23C246.99 3.23 246.65 3.19 246.48 3.19C246.29 3.19 246.25 3.25 246.25 3.49C246.25 3.68 246.32 3.70 246.54 3.70L247.27 3.70C247.28 3.70 247.30 3.71 247.30 3.74C247.30 4.05 245.73 6.99 245.35 7.71C245.24 7.92 245.24 7.88 245.13 7.67C244.72 6.89 243.43 4.56 243.14 3.85C243.08 3.71 243.07 3.70 243.25 3.70L244.08 3.70C244.30 3.70 244.33 3.68 244.33 3.49C244.33 3.25 244.29 3.19 244.13 3.19C243.89 3.19 243.28 3.23 242.48 3.23C241.67 3.23 241.18 3.19 241.00 3.19C240.81 3.19 240.74 3.21 240.74 3.44ZM256.03 8.15C256.03 11.17 258.37 12.80 260.62 12.80C263.41 12.80 265.38 10.89 265.38 8.06C265.38 5.33 263.63 3.11 260.83 3.11C258.23 3.11 256.03 5.10 256.03 8.15ZM257.43 7.77C257.43 5.64 258.72 3.58 260.69 3.58C262.93 3.58 264.01 5.81 264.01 7.94C264.01 10.08 262.91 12.32 260.64 12.32C258.65 12.32 257.43 10.28 257.43 7.77ZM273.49 3.51C273.49 3.75 273.57 3.77 273.74 3.77L274.27 3.77C274.33 3.77 274.33 4.12 274.33 4.55C274.33 5.66 274.32 8.96 274.32 9.42C274.32 11.13 274.57 12.80 277.42 12.80C278.50 12.80 279.66 12.38 280.32 12.00C280.57 11.86 280.87 11.72 280.95 11.72C281.22 11.72 281.48 12.74 281.82 12.74C282.14 12.74 282.16 12.35 282.16 12.25C282.16 11.96 282.21 10.08 282.25 8.16C282.31 6.12 282.30 3.77 282.41 3.77L282.73 3.77C282.95 3.77 283.02 3.75 283.02 3.56C283.02 3.32 282.98 3.26 282.79 3.26C282.65 3.26 282.11 3.30 281.69 3.30C281.27 3.30 280.48 3.26 280.25 3.26C280.07 3.26 279.97 3.28 279.97 3.51C279.97 3.75 280.08 3.77 280.25 3.77L280.95 3.77C281.02 3.77 281.04 4.30 281.04 4.87L281.04 9.14C281.04 11.19 281.04 11.12 280.70 11.34C280.31 11.61 279.50 12.08 278.32 12.08C276.35 12.08 275.55 11.17 275.55 9.41C275.55 8.82 275.62 3.77 275.73 3.77L276.64 3.77C276.86 3.77 276.91 3.75 276.91 3.56C276.91 3.32 276.89 3.26 276.70 3.26C276.37 3.26 275.49 3.30 275.07 3.30C274.65 3.30 273.97 3.26 273.74 3.26C273.56 3.26 273.49 3.28 273.49 3.51ZM291.06 3.51C291.06 3.72 291.13 3.79 291.33 3.79L292.14 3.77C292.24 3.77 292.28 6.61 292.28 8.55L292.28 10.42C292.28 11.30 292.26 12.18 292.22 12.18L291.62 12.18C291.40 12.18 291.33 12.19 291.33 12.39C291.33 12.63 291.37 12.68 291.56 12.68C291.69 12.68 292.52 12.64 292.94 12.64C293.36 12.64 294.13 12.68 294.45 12.68C294.62 12.68 294.64 12.61 294.64 12.40C294.64 12.24 294.62 12.18 294.45 12.18L293.64 12.18C293.57 12.18 293.48 9.18 293.48 8.37C293.48 8.30 293.48 8.26 293.59 8.26C293.99 8.26 294.59 8.27 294.88 8.27C297.12 8.32 297.26 10.00 297.26 11.68L297.26 12.49C297.26 12.61 297.32 12.64 297.42 12.64C297.42 12.64 298.86 12.68 299.33 12.68C299.50 12.68 299.56 12.64 299.56 12.53C299.56 12.24 299.50 12.18 299.35 12.18L298.70 12.18C298.61 12.18 298.58 12.14 298.55 11.31C298.47 8.99 297.09 8.34 296.18 8.05C296.04 8.01 296.07 8.01 296.18 7.95C296.77 7.69 298.09 6.94 298.09 5.63C298.09 3.63 296.39 3.21 294.99 3.21C294.67 3.21 293.38 3.29 292.96 3.29C292.54 3.29 291.56 3.26 291.34 3.26C291.16 3.26 291.06 3.28 291.06 3.51ZM293.48 7.80L293.48 4.40C293.48 4.05 293.51 3.68 293.55 3.68C293.76 3.65 294.04 3.65 294.27 3.65C295.57 3.65 296.81 4.47 296.81 5.82C296.81 6.99 296.27 7.57 295.61 7.88C295.57 7.90 295.53 7.90 295.46 7.90C294.98 7.88 294.27 7.88 293.66 7.87C293.50 7.87 293.48 7.85 293.48 7.80ZM316.76 12.39C316.76 12.63 316.79 12.68 316.99 12.68C317.23 12.68 317.73 12.64 318.15 12.64C318.57 12.64 319.06 12.68 319.38 12.68C319.55 12.68 319.58 12.61 319.58 12.40C319.58 12.24 319.55 12.18 319.38 12.18L318.42 12.18C318.36 12.18 318.35 11.54 318.35 10.79C318.35 8.96 318.39 6.13 318.46 4.28C318.49 3.88 318.51 3.91 318.65 4.27L321.92 12.32C322.01 12.54 322.08 12.74 322.20 12.74C322.29 12.74 322.36 12.63 322.45 12.45C322.78 11.79 322.97 11.75 323.23 11.09L325.82 4.47C325.95 4.16 325.99 4.02 326.00 4.47C326.03 5.66 326.07 8.47 326.07 9.74C326.07 10.99 326.03 12.18 325.98 12.18L325.35 12.18C325.12 12.18 325.05 12.19 325.05 12.39C325.05 12.63 325.08 12.68 325.28 12.68C325.47 12.68 326.17 12.64 326.77 12.64C327.19 12.64 327.95 12.68 328.27 12.68C328.44 12.68 328.47 12.61 328.47 12.40C328.47 12.22 328.41 12.18 328.24 12.18L327.52 12.18C327.40 12.18 327.31 8.44 327.31 6.03L327.31 4.77C327.31 4.17 327.33 3.77 327.38 3.70L328.03 3.70C328.26 3.70 328.30 3.68 328.30 3.49C328.30 3.25 328.29 3.19 328.09 3.19C327.77 3.19 327.08 3.23 326.66 3.23L325.99 3.23C325.77 3.23 325.74 3.29 325.63 3.58L322.88 10.72C322.80 10.95 322.77 11.02 322.66 10.74L319.72 3.40C319.65 3.22 319.59 3.19 319.45 3.19C319.37 3.19 318.88 3.23 318.57 3.23C318.07 3.23 317.21 3.19 317.02 3.19C316.88 3.19 316.88 3.26 316.88 3.47C316.88 3.64 316.88 3.70 317.02 3.70L317.72 3.70C317.98 3.70 317.98 3.72 317.98 3.84C317.98 4.82 317.77 9.94 317.73 10.79C317.69 11.55 317.69 12.18 317.63 12.18L317.06 12.18C316.83 12.18 316.76 12.19 316.76 12.39ZM336.22 12.39C336.22 12.63 336.27 12.68 336.46 12.68C336.78 12.68 337.54 12.64 338.25 12.64C338.91 12.64 339.71 12.68 339.93 12.68C340.10 12.68 340.13 12.61 340.13 12.40C340.13 12.24 340.10 12.18 339.93 12.18L338.97 12.18C338.87 12.18 338.84 9.55 338.84 7.76L338.84 5.87C338.84 5.14 338.87 3.70 338.97 3.70L339.88 3.70C340.10 3.70 340.13 3.68 340.13 3.49C340.13 3.25 340.10 3.19 339.93 3.19C339.61 3.19 338.94 3.23 338.28 3.23C337.47 3.23 336.76 3.19 336.53 3.19C336.35 3.19 336.28 3.21 336.28 3.44C336.28 3.68 336.36 3.70 336.53 3.70L337.46 3.70C337.50 3.70 337.57 4.79 337.57 5.71L337.57 7.08C337.57 8.92 337.55 12.18 337.44 12.18L336.52 12.18C336.29 12.18 336.22 12.19 336.22 12.39ZM348.03 12.39C348.03 12.63 348.04 12.68 348.24 12.68C348.42 12.68 348.80 12.64 349.41 12.64C350.04 12.64 350.60 12.68 350.92 12.68C351.09 12.68 351.09 12.61 351.09 12.40C351.09 12.24 351.09 12.18 350.92 12.18L349.72 12.18C349.68 12.18 349.66 11.54 349.66 10.79C349.66 9.46 349.68 7.48 349.68 5.99C349.68 5.25 349.68 4.84 349.69 4.28C349.69 4.02 349.76 4.14 349.89 4.28L356.78 12.66C356.86 12.75 356.94 12.89 357.06 12.89C357.17 12.89 357.24 12.77 357.24 12.54C357.24 12.39 357.41 6.65 357.42 4.48C357.42 4.06 357.45 3.70 357.48 3.70L358.11 3.70C358.33 3.70 358.39 3.68 358.39 3.49C358.39 3.25 358.39 3.19 358.19 3.19C357.99 3.19 357.56 3.23 357 3.23C356.38 3.23 355.59 3.19 355.49 3.19C355.32 3.19 355.32 3.26 355.32 3.47C355.32 3.64 355.32 3.70 355.49 3.70L356.79 3.70C356.80 3.70 356.80 4.33 356.80 4.44C356.80 5.85 356.83 8.33 356.83 9.70L356.83 10.29C356.83 10.57 356.82 10.65 356.59 10.37L350.91 3.39C350.80 3.25 350.77 3.19 350.60 3.19C350.52 3.19 350.14 3.23 349.83 3.23C349.54 3.23 348.46 3.19 348.26 3.19C348.10 3.19 348.07 3.26 348.07 3.47C348.07 3.64 348.10 3.70 348.26 3.70L349.17 3.70C349.17 4.17 349.13 8.53 349.06 10.79C349.03 11.69 349.05 12.18 348.94 12.18L348.29 12.18C348.07 12.18 348.03 12.19 348.03 12.39ZM366.35 12.46C366.35 12.63 366.37 12.70 366.55 12.70C366.70 12.70 367.93 12.64 368.33 12.64C369.18 12.64 370.06 12.70 370.92 12.70C373.53 12.70 375.93 11.07 375.93 7.91C375.93 4.89 373.59 3.07 370.55 3.07C369.99 3.07 368.73 3.23 367.70 3.23C367.22 3.23 366.76 3.22 366.70 3.22C366.52 3.22 366.51 3.32 366.51 3.49C366.51 3.68 366.58 3.70 366.70 3.70L367.67 3.67C367.70 3.67 367.70 4.20 367.70 4.72C367.70 5.91 367.61 12.21 367.53 12.21L366.63 12.21C366.45 12.21 366.35 12.22 366.35 12.46ZM368.93 11.40C368.93 9.46 368.93 7.52 368.94 5.60C368.94 5.03 368.98 3.61 369.03 3.60C369.32 3.53 369.91 3.51 370.26 3.51C372.82 3.51 374.43 5.75 374.43 7.73C374.43 8.95 374.39 12.25 369.71 12.25C369.45 12.25 369.04 12.25 368.94 12.21C368.93 12.19 368.93 11.79 368.93 11.40Z"></path></g></svg>