<svg data-v-423bf9ae="" xmlns="http://www.w3.org/2000/svg" viewBox="0 0 269.69519103175236 60" class="font"><!----><!----><!----><g data-v-423bf9ae="" id="072c94cc-c1cd-45c6-85c1-923715ebed7d" fill="white" transform="matrix(4.354136212645278,0,0,4.354136212645278,0.740206802086675,-0.4789546380690055)"><path d="M-0.17 1.22C0.57 1.25 0.77 1.33 1.08 1.92C1.86 3.36 2.69 4.91 3.37 6.30C3.53 6.59 3.58 6.83 3.58 7.11L3.58 9.20C3.58 9.97 3.54 10.01 2.10 10.09L2.10 10.50L6.45 10.50L6.45 10.09C5.01 10.01 4.97 9.97 4.97 9.20L4.97 7.06C4.97 6.72 5.01 6.51 5.15 6.23C5.87 4.80 6.92 2.84 7.35 2.14C7.83 1.37 7.91 1.26 8.85 1.22L8.85 0.81L5.78 0.81L5.78 1.22L6.54 1.29C6.79 1.32 6.82 1.47 6.71 1.74C6.36 2.58 5.40 4.49 4.66 5.95L4.63 5.95C3.82 4.48 3.09 3.07 2.48 1.72C2.37 1.47 2.42 1.33 2.63 1.30L3.46 1.22L3.46 0.81L-0.17 0.81ZM8.92 7.07C8.92 9.34 10.02 10.67 12.28 10.67C14.53 10.67 15.64 9.34 15.64 7.07C15.64 4.80 14.53 3.47 12.28 3.47C10.02 3.47 8.92 4.80 8.92 7.07ZM10.37 7.07C10.37 5.14 10.99 3.96 12.28 3.96C13.57 3.96 14.18 5.14 14.18 7.07C14.18 9.00 13.57 10.18 12.28 10.18C10.99 10.18 10.37 9.00 10.37 7.07ZM16.67 4.17L17.21 4.24C17.57 4.30 17.65 4.37 17.65 4.87L17.65 8.57C17.65 10.18 18.61 10.67 19.64 10.67C20.83 10.67 21.80 9.86 22.20 9.66L22.34 10.50L24.58 10.50L24.58 10.09C23.62 10.02 23.53 10.00 23.53 9.28L23.53 3.56L23.44 3.47L21.24 3.82L21.24 4.17L21.77 4.24C22.13 4.30 22.22 4.37 22.22 4.87L22.22 8.02C22.22 8.41 22.18 8.72 22.11 8.86C21.78 9.51 21.11 9.91 20.38 9.91C19.57 9.91 18.97 9.41 18.97 8.32L18.97 3.56L18.87 3.47L16.67 3.82ZM25.24 10.50L28.94 10.50L28.94 10.09C27.69 10.02 27.61 10.00 27.61 9.28L27.61 6.01C27.61 4.93 28.08 4.56 28.41 4.56C28.63 4.56 28.87 4.65 29.27 4.87C29.37 4.93 29.48 4.94 29.55 4.94C29.89 4.94 30.20 4.59 30.20 4.16C30.20 3.85 30.00 3.47 29.46 3.47C28.95 3.47 28.53 3.78 27.61 4.59L27.44 3.47L25.31 3.82L25.31 4.17L25.84 4.24C26.21 4.30 26.29 4.37 26.29 4.87L26.29 9.28C26.29 10.00 26.22 10.02 25.24 10.09ZM33.88 10.50L38.22 10.50C40.35 10.50 41.72 9.73 41.72 7.78C41.72 6.13 40.54 5.40 39.19 5.22L39.19 5.19C40.50 4.93 41.27 4.12 41.27 3.04C41.27 2.27 40.96 1.69 40.40 1.32C39.86 0.95 39.05 0.81 37.93 0.81L33.88 0.81L33.88 1.22C35.11 1.30 35.14 1.33 35.14 2.11L35.14 9.20C35.14 9.98 35.11 10.01 33.88 10.09ZM36.53 8.93L36.53 5.53L37.53 5.53C39.27 5.53 40.22 6.40 40.22 7.88C40.22 9.56 39.07 10.01 37.87 10.01C36.75 10.01 36.53 9.80 36.53 8.93ZM36.53 5.04L36.53 2.00C36.53 1.40 36.57 1.30 37.66 1.30C38.68 1.30 39.80 1.68 39.80 3.12C39.80 4.49 38.92 5.04 37.46 5.04ZM42.71 10.50L46.13 10.50L46.13 10.09C45.14 10.02 45.08 10.00 45.08 9.28L45.08 0.20L44.98 0.11L42.78 0.46L42.78 0.81L43.32 0.87C43.68 0.91 43.76 0.98 43.76 1.51L43.76 9.28C43.76 10.00 43.72 10.02 42.71 10.09ZM47.03 7.07C47.03 9.34 48.13 10.67 50.39 10.67C52.64 10.67 53.75 9.34 53.75 7.07C53.75 4.80 52.64 3.47 50.39 3.47C48.13 3.47 47.03 4.80 47.03 7.07ZM48.48 7.07C48.48 5.14 49.10 3.96 50.39 3.96C51.67 3.96 52.29 5.14 52.29 7.07C52.29 9.00 51.67 10.18 50.39 10.18C49.10 10.18 48.48 9.00 48.48 7.07ZM55.01 11.84C55.01 13.26 56.41 13.89 58.03 13.89C58.87 13.89 59.75 13.72 60.42 13.31C61.07 12.92 61.53 12.26 61.53 11.40C61.53 9.88 60.33 9.35 58.83 9.35L57.71 9.35C56.70 9.35 56.55 9.02 56.55 8.75C56.55 8.34 57.08 8.12 57.26 8.06C57.53 8.09 57.82 8.11 57.97 8.11C59.30 8.11 60.80 7.52 60.80 5.82C60.80 5.24 60.62 4.75 60.38 4.51L61.49 4.34L61.77 3.46L61.66 3.33L59.86 3.91C59.47 3.64 58.70 3.47 58.06 3.47C55.92 3.47 55.16 4.79 55.16 5.82C55.16 7.14 56.03 7.74 56.67 7.91L56.67 7.94C55.92 8.23 55.38 8.64 55.38 9.18C55.38 9.67 55.94 10.21 56.62 10.28L56.62 10.30C56.01 10.50 55.01 10.84 55.01 11.84ZM56.34 11.77C56.34 11.30 56.48 10.95 56.77 10.72C57.08 10.49 57.54 10.40 58.21 10.40C59.44 10.40 60.35 10.70 60.35 11.75C60.35 12.87 59.35 13.40 58.35 13.40C57.16 13.40 56.34 12.78 56.34 11.77ZM56.59 5.82C56.59 4.44 57.32 3.96 58.06 3.96C58.74 3.96 59.46 4.47 59.46 5.82C59.46 7 58.84 7.62 58.03 7.62C57.25 7.62 56.59 7 56.59 5.82Z"></path></g><!----><!----></svg>